<?xml version="1.0" encoding="utf-8"?>
<!-- Generator: Adobe Illustrator 16.0.4, SVG Export Plug-In . SVG Version: 6.00 Build 0)  -->
<!DOCTYPE svg PUBLIC "-//W3C//DTD SVG 1.1//EN" "http://www.w3.org/Graphics/SVG/1.1/DTD/svg11.dtd">
<svg version="1.1" id="Layer_1" xmlns="http://www.w3.org/2000/svg" xmlns:xlink="http://www.w3.org/1999/xlink" x="0px" y="0px"
	 width="604.47px" height="284.986px" viewBox="0 0 604.47 284.986" enable-background="new 0 0 604.47 284.986"
	 xml:space="preserve">
<linearGradient id="SVGID_1_" gradientUnits="userSpaceOnUse" x1="400.7905" y1="206.0298" x2="582.7904" y2="130.0297">
	<stop  offset="0" style="stop-color:#FFFFFF"/>
	<stop  offset="1" style="stop-color:#000000"/>
</linearGradient>
<polygon opacity="0.15" fill="url(#SVGID_1_)" points="316.398,165.736 589.065,133.735 453.065,259.736 "/>
<polygon opacity="0.2" fill="#1B1F8A" enable-background="new    " points="425.731,18.402 316.398,165.736 453.065,259.736 
	525.065,144.402 "/>
<polygon opacity="0.2" fill="#1B1F8A" enable-background="new    " points="425.731,18.402 453.065,259.736 525.065,144.402 "/>
<polygon fill="none" stroke="#000000" stroke-width="1.8947" points="425.731,18.402 316.398,165.736 453.065,259.736 
	525.065,144.402 "/>
<line fill="none" stroke="#000000" stroke-width="1.8947" x1="425.731" y1="18.402" x2="453.065" y2="259.736"/>
<line fill="none" stroke="#000000" stroke-width="1.8947" stroke-dasharray="6" x1="316.398" y1="165.736" x2="525.065" y2="144.402"/>
<line fill="none" stroke="#000000" stroke-width="1.8947" x1="76.398" y1="120.402" x2="128.398" y2="186.402"/>
<line opacity="0.15" fill="none" stroke="#000000" x1="145.731" y1="188.402" x2="207.731" y2="255.069"/>
<circle cx="23.731" cy="157.069" r="3.333"/>
<circle cx="128.398" cy="186.402" r="3.333"/>
<circle cx="255.065" cy="222.402" r="3.333"/>
<circle cx="231.064" cy="35.735" r="3.333"/>
<circle cx="152.398" cy="147.736" r="3.333"/>
<circle cx="425.731" cy="18.402" r="3.333"/>
<circle cx="316.398" cy="165.736" r="3.333"/>
<circle cx="453.065" cy="259.736" r="3.333"/>
<circle cx="525.065" cy="144.402" r="3.333"/>
<circle cx="76.398" cy="120.402" r="3.333"/>
<circle opacity="0.15" cx="113.731" cy="251.069" r="3.333"/>
<linearGradient id="SVGID_2_" gradientUnits="userSpaceOnUse" x1="392.7319" y1="161.0698" x2="256.7318" y2="229.0697">
	<stop  offset="0" style="stop-color:#FFFFFF"/>
	<stop  offset="1" style="stop-color:#000000"/>
</linearGradient>
<polygon opacity="0.15" fill="url(#SVGID_2_)" points="371.065,118.402 379.065,208.402 320.398,253.069 231.064,186.069 
	329.065,174.402 "/>
<polygon opacity="0.2" fill="#1B1F8A" enable-background="new    " points="231.064,35.735 255.065,222.402 152.398,147.736 "/>
<polygon fill="none" stroke="#000000" stroke-width="1.8947" points="231.064,35.735 255.065,222.402 152.398,147.736 "/>
</svg>
